<svg id="visual" viewBox="0 0 900 600" width="900" height="600" xmlns="http://www.w3.org/2000/svg" xmlns:xlink="http://www.w3.org/1999/xlink" version="1.1"><path d="M0 121L90 97L180 145L270 127L360 163L450 139L540 151L630 181L720 175L810 127L900 121L900 0L810 0L720 0L630 0L540 0L450 0L360 0L270 0L180 0L90 0L0 0Z" fill="#4fd1c5"></path><path d="M0 271L90 241L180 379L270 361L360 361L450 283L540 277L630 427L720 385L810 361L900 235L900 119L810 125L720 173L630 179L540 149L450 137L360 161L270 125L180 143L90 95L0 119Z" fill="#3ab6a9"></path><path d="M0 367L90 343L180 499L270 445L360 481L450 355L540 403L630 493L720 457L810 451L900 361L900 233L810 359L720 383L630 425L540 275L450 281L360 359L270 359L180 377L90 239L0 269Z" fill="#239c8d"></path><path d="M0 601L90 601L180 601L270 601L360 601L450 601L540 601L630 601L720 601L810 601L900 601L900 359L810 449L720 455L630 491L540 401L450 353L360 479L270 443L180 497L90 341L0 365Z" fill="#038373"></path></svg>