<svg width="35" height="60" viewBox="0 0 120 149" fill="none" xmlns="http://www.w3.org/2000/svg">
<path fill-rule="evenodd" clip-rule="evenodd" d="M59.8333 0C27.0665 0 0.5 29.6889 0.5 63.0417C0.5 96.1349 19.4347 132.106 48.9827 145.916C52.379 147.506 56.0832 148.33 59.8333 148.33C63.5834 148.33 67.2877 147.506 70.6839 145.916C100.232 132.106 119.167 96.1349 119.167 63.0417C119.167 29.6889 92.6002 0 59.8333 0Z" fill="#2D3748"/>
<path d="M42.5406 49.3906L38.7684 60.2143H81.2316L77.4594 49.3906C76.809 47.5335 75.0602 46.2857 73.0945 46.2857H46.9055C44.9398 46.2857 43.191 47.5335 42.5406 49.3906ZM28.7234 60.9107L33.8109 46.3292C35.7621 40.7433 41.0086 37 46.9055 37H73.0945C78.9914 37 84.2379 40.7433 86.1891 46.3292L91.2766 60.9107C94.6297 62.3036 97 65.6261 97 69.5V97.3571C97 99.9252 94.9332 102 92.375 102H87.75C85.1918 102 83.125 99.9252 83.125 97.3571V90.3929H36.875V97.3571C36.875 99.9252 34.8082 102 32.25 102H27.625C25.0668 102 23 99.9252 23 97.3571V69.5C23 65.6261 25.3703 62.3036 28.7234 60.9107ZM41.5 74.1429C41.5 72.9115 41.0127 71.7306 40.1454 70.8599C39.278 69.9892 38.1016 69.5 36.875 69.5C35.6484 69.5 34.472 69.9892 33.6046 70.8599C32.7373 71.7306 32.25 72.9115 32.25 74.1429C32.25 75.3742 32.7373 76.5551 33.6046 77.4259C34.472 78.2966 35.6484 78.7857 36.875 78.7857C38.1016 78.7857 39.278 78.2966 40.1454 77.4259C41.0127 76.5551 41.5 75.3742 41.5 74.1429ZM83.125 78.7857C84.3516 78.7857 85.528 78.2966 86.3954 77.4259C87.2627 76.5551 87.75 75.3742 87.75 74.1429C87.75 72.9115 87.2627 71.7306 86.3954 70.8599C85.528 69.9892 84.3516 69.5 83.125 69.5C81.8984 69.5 80.722 69.9892 79.8546 70.8599C78.9873 71.7306 78.5 72.9115 78.5 74.1429C78.5 75.3742 78.9873 76.5551 79.8546 77.4259C80.722 78.2966 81.8984 78.7857 83.125 78.7857Z" fill="white"/>
</svg>
